<svg width="12" height="13" viewBox="0 0 12 13" fill="none" xmlns="http://www.w3.org/2000/svg">
<g clip-path="url(#clip0_314_89)">
<path d="M4.01364 1.34399C3.17928 1.34399 2.49492 2.02835 2.49492 2.86283C2.49492 3.25643 2.65116 3.61379 2.8998 3.88487L1.65384 6.40019C1.60872 6.39611 1.56504 6.38651 1.51884 6.38651C0.68436 6.38651 0 7.07087 0 7.90535C0 8.73983 0.68436 9.42419 1.51884 9.42419C2.04156 9.42419 2.50296 9.15323 2.77644 8.74739L9.01908 9.66383C9.1914 10.313 9.78012 10.7993 10.4812 10.7993C11.3156 10.7993 12 10.1149 12 9.28043C12 8.47199 11.3562 7.80851 10.5575 7.76747L9.7398 5.21687C10.0897 4.93787 10.3198 4.51343 10.3198 4.03451C10.3198 3.20003 9.6354 2.51471 8.80092 2.51471C8.27232 2.51471 7.80516 2.79035 7.53252 3.20411L5.51196 2.65163C5.40732 1.91675 4.776 1.34399 4.01364 1.34399ZM4.01364 2.11367C4.43244 2.11367 4.76376 2.44415 4.76376 2.86283C4.76449 2.96154 4.7456 3.0594 4.70817 3.15073C4.67074 3.24206 4.61552 3.32504 4.54573 3.39484C4.47595 3.46464 4.39297 3.51987 4.30165 3.55732C4.21032 3.59476 4.11246 3.61367 4.01376 3.61295C3.59496 3.61295 3.2646 3.28151 3.2646 2.86283C3.2646 2.44415 3.59508 2.11367 4.01364 2.11367ZM8.80092 3.28439C9.21972 3.28439 9.55008 3.61583 9.55008 4.03439C9.55008 4.45319 9.2196 4.78355 8.80092 4.78355C8.38236 4.78355 8.05092 4.45307 8.05092 4.03451C8.05019 3.93581 8.06908 3.83795 8.10651 3.74662C8.14394 3.65528 8.19916 3.57231 8.26895 3.5025C8.33873 3.4327 8.42171 3.37748 8.51303 3.34003C8.60436 3.30259 8.70222 3.28368 8.80092 3.28439ZM5.3136 3.63539L7.296 4.17827C7.37004 4.94351 8.01312 5.54975 8.79624 5.55227L9.59616 8.05307C9.39012 8.20271 9.22728 8.40407 9.11604 8.63495V8.64671L9.11304 8.67503L8.892 8.64275L9.07788 7.37531L8.58684 7.30391L8.40108 8.57039L7.65192 8.46083L7.8378 7.19339L7.34676 7.12103L7.161 8.38847L6.41088 8.27807L6.669 6.51767L6.17904 6.44519L5.91984 8.20559L5.16984 8.09603L5.3556 6.82859L4.86468 6.75719L4.6788 8.02367L3.92976 7.91327L4.11552 6.64667L3.6246 6.57431L3.43872 7.84175L3.02604 7.78115L3.03084 7.75871L3.02208 7.75763C2.98512 7.38959 2.82156 7.05719 2.56728 6.81299L3.78204 4.35911C3.85812 4.37111 3.93456 4.38263 4.01376 4.38263C4.56576 4.38263 5.04732 4.07999 5.3136 3.63539ZM1.51884 7.15523C1.61754 7.15452 1.7154 7.17343 1.80673 7.21087C1.89805 7.24832 1.98103 7.30354 2.05081 7.37334C2.1206 7.44314 2.17582 7.52612 2.21325 7.61746C2.25068 7.70879 2.26957 7.80665 2.26884 7.90535C2.26957 8.00406 2.25068 8.10192 2.21325 8.19325C2.17582 8.28458 2.1206 8.36756 2.05081 8.43736C1.98103 8.50716 1.89805 8.56239 1.80673 8.59984C1.7154 8.63728 1.61754 8.65619 1.51884 8.65547C1.42014 8.65621 1.32228 8.63731 1.23094 8.59988C1.13961 8.56245 1.05663 8.50724 0.986831 8.43745C0.91703 8.36766 0.861802 8.28469 0.824358 8.19336C0.786914 8.10204 0.768001 8.00418 0.76872 7.90547C0.76797 7.80676 0.786855 7.70889 0.824277 7.61754C0.8617 7.52619 0.916912 7.4432 0.986703 7.37339C1.05649 7.30357 1.13947 7.24833 1.2308 7.21088C1.32214 7.17343 1.42013 7.15452 1.51884 7.15523ZM10.4812 8.53043C10.5799 8.5297 10.6777 8.5486 10.7691 8.58604C10.8604 8.62347 10.9434 8.6787 11.0132 8.7485C11.083 8.8183 11.1382 8.90129 11.1757 8.99263C11.2131 9.08397 11.232 9.18184 11.2313 9.28055C11.2313 9.69923 10.8998 10.0288 10.4813 10.0288C10.0625 10.0288 9.73104 9.69923 9.73104 9.28055C9.73031 9.18184 9.74921 9.08397 9.78664 8.99263C9.82408 8.90129 9.87931 8.8183 9.94911 8.7485C10.0189 8.6787 10.1019 8.62347 10.1932 8.58604C10.2846 8.5486 10.3824 8.5297 10.4812 8.53043Z" fill="black"/>
</g>
<defs>
<clipPath id="clip0_314_89">
<rect width="12" height="12" fill="white" transform="translate(0 0.0715332)"/>
</clipPath>
</defs>
</svg>
