<svg width="12" height="13" viewBox="0 0 12 13" fill="none" xmlns="http://www.w3.org/2000/svg">
<path d="M7 6.07153L5 8.07153L7 10.0715V8.52153C9.28 8.29153 11 7.28153 11 6.07153C11 4.86153 9.28 3.85153 7 3.62153V4.61653C8.725 4.78653 10 5.37153 10 6.07153C10 6.77153 8.725 7.35653 7 7.52653V6.07153ZM2 6.07153C2 5.37153 3.275 4.78653 5 4.61653V3.62153C2.72 3.85153 1 4.86153 1 6.07153C1 7.15153 2.37 8.07153 4.29 8.42153L3.94 8.07153L4.54 7.46653C3.055 7.25153 2 6.70653 2 6.07153ZM6.5 1.07153H5.5V6.57153L6.5 5.57153V1.07153ZM6.5 11.0715V10.5715L5.5 9.57153V11.0715H6.5Z" fill="black"/>
</svg>
