<svg width="24" height="24" viewBox="0 0 24 24" fill="none" xmlns="http://www.w3.org/2000/svg">
<path d="M7.35484 12.7742V0H9.75077V1.38746C9.75077 1.38746 9.75077 2.57229 10.6309 3.25335C11.1617 3.6641 12.2934 3.73179 12.2934 3.73179H16.6452V6.12396C14.3728 6.08659 13.6856 6.06564 11.4132 6.02827C11.4132 6.02827 10.5331 6.02827 10.1419 6.45886C9.75077 6.88945 9.75077 7.36789 9.75077 7.36789V12.7742H7.35484Z" fill="#D19A66"/>
<path d="M11.2258 7.35486L24 7.35486L24 9.65095L22.6125 9.65095C22.6125 9.65095 21.4277 9.65095 20.7466 10.4944C20.3359 11.0031 20.2682 12.0876 20.2682 12.0876L20.2682 16.2581L17.876 16.2581C17.9134 14.0804 17.9344 13.4218 17.9717 11.2442C17.9717 11.2442 17.9717 10.4007 17.5411 10.0258C17.1105 9.65095 16.6321 9.65095 16.6321 9.65095L11.2258 9.65095L11.2258 7.35486Z" fill="#D19A66"/>
<path d="M16.6452 11.2258L16.6452 24L14.2492 24L14.2492 22.6125C14.2492 22.6125 14.2492 21.4277 13.3691 20.7466C12.8383 20.3359 11.7066 20.2682 11.7066 20.2682L7.35483 20.2682L7.35483 17.876C9.62717 17.9134 10.3144 17.9344 12.5868 17.9717C12.5868 17.9717 13.4669 17.9717 13.8581 17.5411C14.2492 17.1105 14.2492 16.6321 14.2492 16.6321L14.2492 11.2258L16.6452 11.2258Z" fill="#D19A66"/>
<path d="M12.7742 16.2581L0 16.2581L-1.00366e-07 13.962L1.38746 13.962C1.38746 13.962 2.57229 13.962 3.25335 13.1185C3.6641 12.6098 3.73179 11.5253 3.73179 11.5253L3.73179 7.35483L6.12396 7.35483C6.08659 9.53249 6.06564 10.1911 6.02827 12.3688C6.02827 12.3688 6.02827 13.2122 6.45886 13.5871C6.88945 13.962 7.36789 13.962 7.36789 13.962L12.7742 13.962L12.7742 16.2581Z" fill="#D19A66"/>
</svg>
